<svg width="233" height="281" viewBox="0 0 233 281" fill="none" xmlns="http://www.w3.org/2000/svg">
<path fill-rule="evenodd" clip-rule="evenodd" d="M203.067 0.924805C213.501 0.924805 218.718 0.925144 222.703 2.95564C226.208 4.74176 229.058 7.59171 230.844 11.0972C232.875 15.0823 232.875 20.2989 232.875 30.7324V139.952C232.875 150.385 232.875 155.602 230.844 159.587C229.058 163.092 226.208 165.942 222.703 167.728C218.718 169.759 213.501 169.759 203.067 169.759H131.341C126.125 169.759 123.516 169.759 121.524 170.775C119.771 171.668 118.346 173.093 117.453 174.845C116.438 176.838 116.437 179.446 116.437 184.663V250.567C116.437 261.001 116.437 266.217 114.407 270.202C112.621 273.708 109.771 276.558 106.265 278.344C102.28 280.374 97.0634 280.375 86.63 280.375H29.8075C19.3741 280.375 14.1575 280.374 10.1724 278.344C6.6669 276.558 3.81695 273.708 2.03083 270.202C0.00033896 266.217 4.301e-10 261.001 0 250.567V30.7324C4.37998e-10 20.2989 0.000339238 15.0823 2.03083 11.0972C3.81695 7.59171 6.6669 4.74176 10.1724 2.95564C14.1575 0.925144 19.3741 0.924805 29.8075 0.924805H203.067ZM55.6569 41.6779C50.4402 41.6779 47.8319 41.6781 45.8393 42.6933C44.0866 43.5864 42.6616 45.0114 41.7685 46.7641C40.7533 48.7567 40.7531 51.365 40.7531 56.5817V224.718C40.7531 229.935 40.7533 232.543 41.7685 234.536C42.6616 236.288 44.0866 237.713 45.8393 238.606C47.8319 239.622 50.4402 239.622 55.6569 239.622H60.7806C65.9973 239.622 68.6056 239.622 70.5982 238.606C72.3509 237.713 73.7759 236.288 74.669 234.536C75.6842 232.543 75.6844 229.935 75.6844 224.718V143.91C75.6844 138.693 75.6845 136.085 76.6998 134.092C77.5928 132.34 79.0178 130.915 80.7706 130.021C82.7631 129.006 85.3714 129.006 90.5881 129.006H177.218C182.435 129.006 185.043 129.006 187.036 127.991C188.788 127.098 190.213 125.673 191.106 123.92C192.122 121.927 192.122 119.319 192.122 114.102V56.5817C192.122 51.365 192.122 48.7567 191.106 46.7641C190.213 45.0114 188.788 43.5864 187.036 42.6933C185.043 41.6781 182.435 41.6779 177.218 41.6779H55.6569Z" fill="#FFFFFF"/>
<path d="M75.6844 78.2393C75.6844 75.6309 75.6844 74.3266 76.192 73.3303C76.6385 72.454 77.351 71.7415 78.2274 71.2949C79.2237 70.7873 80.5279 70.7873 83.1364 70.7873H152.067C154.676 70.7873 155.98 70.7873 156.976 71.2949C157.853 71.7415 158.565 72.454 159.012 73.3303C159.519 74.3266 159.519 75.6309 159.519 78.2393V92.4447C159.519 95.0531 159.519 96.3574 159.012 97.3536C158.565 98.23 157.853 98.9425 156.976 99.389C155.98 99.8967 154.676 99.8967 152.067 99.8967H83.1364C80.5279 99.8967 79.2237 99.8967 78.2274 99.389C77.351 98.9425 76.6385 98.23 76.192 97.3536C75.6844 96.3574 75.6844 95.0531 75.6844 92.4447V78.2393Z" fill="#FFFFFF"/>
<path d="M224.062 188.389H139.725C137.153 188.389 135.067 190.474 135.067 193.047V272.294C135.067 275.355 138.724 276.936 140.954 274.839L226.455 194.427C228.76 192.259 227.226 188.389 224.062 188.389Z" fill="#FFFFFF"/>
</svg>
